<svg xmlns="http://www.w3.org/2000/svg" xmlns:osb="http://www.openswatchbook.org/uri/2009/osb" xmlns:svg="http://www.w3.org/2000/svg" xmlns:xlink="http://www.w3.org/1999/xlink" id="svg2" width="23" height="12" display="inline" version="1.1"><title id="title5647">Mixxx 1.12+ iconset</title><defs id="defs28"><linearGradient id="linearGradient5515" osb:paint="solid"><stop id="stop5517" offset="0" stop-color="#000" stop-opacity="1"/></linearGradient><linearGradient id="linearGradient4942"><stop id="stop4944" offset="0" stop-color="#f60" stop-opacity="1"/><stop id="stop4946" offset="1" stop-color="#de5800" stop-opacity="1"/></linearGradient><linearGradient id="linearGradient5695-6"><stop id="stop5697-6" offset="0" stop-color="#3c3c3c" stop-opacity="1"/><stop id="stop5699-7" offset="1" stop-color="#000" stop-opacity="1"/></linearGradient><linearGradient id="linearGradient5695-4"><stop id="stop5697-7" offset="0" stop-color="#646464" stop-opacity="1"/><stop id="stop5699-6" offset="1" stop-color="#000" stop-opacity="1"/></linearGradient><linearGradient id="linearGradient4942-73"><stop id="stop4944-6" offset="0" stop-color="#f60" stop-opacity="1"/><stop id="stop4946-6" offset="1" stop-color="#de5800" stop-opacity="1"/></linearGradient><linearGradient id="linearGradient4942-5"><stop id="stop4944-9" offset="0" stop-color="#f60" stop-opacity="1"/><stop id="stop4946-5" offset="1" stop-color="#de5800" stop-opacity="1"/></linearGradient><linearGradient id="linearGradient3440" x1="-26" x2="-26" y1="34.25" y2="46.25" gradientTransform="translate(25.999995,-15.999999)" gradientUnits="userSpaceOnUse" xlink:href="#linearGradient4942"/><linearGradient id="linearGradient3442" x1="-22.218" x2="-22.218" y1="12.625" y2="26.625" gradientTransform="translate(30.333329,-18.666668)" gradientUnits="userSpaceOnUse" xlink:href="#linearGradient4942"/><linearGradient id="linearGradient3415" x1="571.468" x2="591.455" y1="611.792" y2="611.792" gradientTransform="translate(25.999996,-15.999999)" gradientUnits="userSpaceOnUse" xlink:href="#linearGradient4942"/><linearGradient id="linearGradient5259" x1="-22.218" x2="-22.218" y1="12.625" y2="26.625" gradientTransform="translate(30.333329,-18.666668)" gradientUnits="userSpaceOnUse" xlink:href="#linearGradient4942"/><linearGradient id="linearGradient5261" x1="571.468" x2="591.455" y1="611.792" y2="611.792" gradientTransform="translate(25.999996,-15.999999)" gradientUnits="userSpaceOnUse" xlink:href="#linearGradient4942"/></defs><metadata id="metadata4"/><g id="ic_library_crates" display="inline" transform="translate(0,-20)"><g id="ic_library_unchecked" display="inline" transform="matrix(0.415098,0,0,0.415098,-1.660392,19.54706)"><g id="style_library_preview_play" display="inline" transform="matrix(2.4090697,0,0,2.4090697,-58.6358,39.636279)"><g id="g3436" fill="#979797" fill-opacity=".5" transform="matrix(0.85714286,0,0,0.85714286,51.044381,-24.571429)"><path id="path3438" fill="url(#linearGradient3440)" fill-opacity="1" fill-rule="nonzero" stroke="none" d="m -26,32 c -3.376146,0 -5.8125,2.420091 -5.8125,5.75 -0.02885,0.04115 -0.0269,0.04484 0,0.0625 v 2.09375 C -31.95368,40.251454 -32,40.690868 -32,41.1875 c 0,1.08133 0.15281,1.96875 1.21875,1.96875 v -3.9375 c -0.05826,0 -0.103077,0.02604 -0.15625,0.03125 v -1.5 c 0,-0.35788 0.03255,-0.711959 0.09375,-1.03125 0.05746,-0.308575 0.173694,-0.595956 0.28125,-0.875 0.707406,-1.67368 2.381799,-2.625 4.5625,-2.625 2.180238,0 3.886417,0.95132 4.59375,2.625 0.235778,0.557893 0.34375,1.19049 0.34375,1.90625 v 1.46875 c -0.05502,-0.0057 -0.09568,0 -0.15625,0 V 43.125 c 1.065786,0 1.21875,-0.856631 1.21875,-1.9375 0,-0.488809 -0.02108,-0.938349 -0.15625,-1.28125 V 37.75 C -20.15625,34.420091 -22.624315,32 -26,32 Z" transform="matrix(1.1666667,0,0,1.1666667,8.1148843,-27.333333)"/><rect stroke-linejoin="miter" style="marker:none" id="rect3440" width="2.5" height="6" x="-20.218" y="18" fill="url(#linearGradient5259)" fill-opacity="1" fill-rule="evenodd" stroke="#979797" stroke-dasharray="none" stroke-dashoffset="0" stroke-linecap="butt" stroke-miterlimit="4" stroke-opacity=".251" stroke-width="0" color="#000" display="inline" enable-background="accumulate" overflow="visible" rx="1" ry=".2" visibility="visible"/><rect stroke-linejoin="miter" style="marker:none" id="rect3442" width="2.5" height="6" x="-26.718" y="18" fill="url(#linearGradient3442)" fill-opacity="1" fill-rule="evenodd" stroke="#979797" stroke-dasharray="none" stroke-dashoffset="0" stroke-linecap="butt" stroke-miterlimit="4" stroke-opacity=".251" stroke-width="0" color="#000" display="inline" enable-background="accumulate" overflow="visible" rx="1" ry=".2" visibility="visible"/></g><g id="g3407" transform="translate(0,-0.49999978)"><rect id="rect3370" width="2" height="7" x="43" y="-13" fill="url(#linearGradient5261)" fill-opacity="1" fill-rule="nonzero" stroke="none" stroke-width="0" color="#000" display="inline" enable-background="accumulate" overflow="visible" visibility="visible" style="marker:none"/><rect id="rect3372" width="2" height="7" x="47" y="-13" fill="url(#linearGradient3415)" fill-opacity="1" fill-rule="nonzero" stroke="none" stroke-width="0" color="#000" display="inline" enable-background="accumulate" overflow="visible" visibility="visible" style="marker:none"/></g></g></g></g></svg>