<svg xmlns="http://www.w3.org/2000/svg" xmlns:osb="http://www.openswatchbook.org/uri/2009/osb" xmlns:svg="http://www.w3.org/2000/svg" xmlns:xlink="http://www.w3.org/1999/xlink" id="svg2" width="32" height="32" display="inline" version="1.1"><title id="title5647">Mixxx 1.12+ iconset</title><defs id="defs28"><linearGradient id="linearGradient5515" osb:paint="solid"><stop id="stop5517" offset="0" stop-color="#000" stop-opacity="1"/></linearGradient><linearGradient id="linearGradient4942"><stop id="stop4944" offset="0" stop-color="#f60" stop-opacity="1"/><stop id="stop4946" offset="1" stop-color="#de5800" stop-opacity="1"/></linearGradient><linearGradient id="linearGradient5695-6"><stop id="stop5697-6" offset="0" stop-color="#3c3c3c" stop-opacity="1"/><stop id="stop5699-7" offset="1" stop-color="#000" stop-opacity="1"/></linearGradient><linearGradient id="linearGradient5695-4"><stop id="stop5697-7" offset="0" stop-color="#646464" stop-opacity="1"/><stop id="stop5699-6" offset="1" stop-color="#000" stop-opacity="1"/></linearGradient><linearGradient id="linearGradient4942-73"><stop id="stop4944-6" offset="0" stop-color="#f60" stop-opacity="1"/><stop id="stop4946-6" offset="1" stop-color="#de5800" stop-opacity="1"/></linearGradient><linearGradient id="linearGradient4942-5"><stop id="stop4944-9" offset="0" stop-color="#f60" stop-opacity="1"/><stop id="stop4946-5" offset="1" stop-color="#de5800" stop-opacity="1"/></linearGradient><linearGradient id="linearGradient2134" x1="12" x2="12" y1="2" y2="30" gradientUnits="userSpaceOnUse" xlink:href="#linearGradient4942"/></defs><metadata id="metadata4"/><g id="g17478" fill="url(#linearGradient2134)" fill-opacity="1" display="inline"><path id="rect17459" fill="url(#linearGradient2134)" fill-opacity="1" fill-rule="nonzero" stroke="none" stroke-dasharray="none" stroke-dashoffset="0" stroke-linecap="round" stroke-linejoin="miter" stroke-miterlimit="4" stroke-opacity="1" stroke-width="2" d="M 10,2 C 8.892,2 8,2.892 8,4 v 6 H 24 V 4 C 24,2.892 23.108,2 22,2 Z m 2.5,3 C 13.328427,5 14,5.6715729 14,6.5 14,7.3284271 13.328427,8 12.5,8 11.671573,8 11,7.3284271 11,6.5 11,5.6715729 11.671573,5 12.5,5 Z m 7,0 C 20.328427,5 21,5.6715729 21,6.5 21,7.3284271 20.328427,8 19.5,8 18.671573,8 18,7.3284271 18,6.5 18,5.6715729 18.671573,5 19.5,5 Z" color="#000" display="inline" enable-background="accumulate" opacity="1" overflow="visible" visibility="visible" style="marker:none"/><rect id="rect4796-5" width="4" height="6" x="10" y="24" fill="url(#linearGradient2134)" fill-opacity="1" stroke="none" display="inline" rx="1" ry="1"/><rect id="rect4798-3" width="4" height="6" x="18" y="24" fill="url(#linearGradient2134)" fill-opacity="1" stroke="none" display="inline" rx="1" ry="1"/><rect id="rect4305-0" width="4" height="10" x="2" y="12" fill="url(#linearGradient2134)" fill-opacity="1" fill-rule="nonzero" stroke="none" stroke-width="2" color="#000" display="inline" enable-background="accumulate" overflow="visible" rx="1" ry="1" visibility="visible" style="marker:none"/><path id="rect4319-1" fill="url(#linearGradient2134)" fill-opacity="1" fill-rule="nonzero" stroke="none" stroke-width="2" d="M 8,12 V 13.15625 14 24.84375 C 8,25.490083 8.446,26 9,26 h 14 c 0.554,0 1,-0.509917 1,-1.15625 V 14 13.15625 12 H 23 9 Z" color="#000" display="inline" enable-background="accumulate" overflow="visible" visibility="visible" style="marker:none"/><rect id="rect4330-9" width="4" height="10" x="26" y="12" fill="url(#linearGradient2134)" fill-opacity="1" fill-rule="nonzero" stroke="none" stroke-width="2" color="#000" display="inline" enable-background="accumulate" overflow="visible" rx="1" ry="1" visibility="visible" style="marker:none"/></g></svg>