<svg xmlns="http://www.w3.org/2000/svg" xmlns:osb="http://www.openswatchbook.org/uri/2009/osb" xmlns:svg="http://www.w3.org/2000/svg" xmlns:xlink="http://www.w3.org/1999/xlink" id="svg2" width="32" height="32" display="inline" version="1.1"><title id="title5647">Mixxx 1.12+ iconset</title><defs id="defs28"><linearGradient id="linearGradient5515" osb:paint="solid"><stop id="stop5517" offset="0" stop-color="#000" stop-opacity="1"/></linearGradient><linearGradient id="linearGradient4942"><stop id="stop4944" offset="0" stop-color="#f60" stop-opacity="1"/><stop id="stop4946" offset="1" stop-color="#de5800" stop-opacity="1"/></linearGradient><linearGradient id="linearGradient5695-6"><stop id="stop5697-6" offset="0" stop-color="#3c3c3c" stop-opacity="1"/><stop id="stop5699-7" offset="1" stop-color="#000" stop-opacity="1"/></linearGradient><linearGradient id="linearGradient5695-4"><stop id="stop5697-7" offset="0" stop-color="#646464" stop-opacity="1"/><stop id="stop5699-6" offset="1" stop-color="#000" stop-opacity="1"/></linearGradient><linearGradient id="linearGradient4942-73"><stop id="stop4944-6" offset="0" stop-color="#f60" stop-opacity="1"/><stop id="stop4946-6" offset="1" stop-color="#de5800" stop-opacity="1"/></linearGradient><linearGradient id="linearGradient4942-5"><stop id="stop4944-9" offset="0" stop-color="#f60" stop-opacity="1"/><stop id="stop4946-5" offset="1" stop-color="#de5800" stop-opacity="1"/></linearGradient><linearGradient id="linearGradient5319" x1="16" x2="16" y1="8" y2="32" gradientUnits="userSpaceOnUse" xlink:href="#linearGradient4942"/><linearGradient id="linearGradient5316" x1="20" x2="20" y1="8" y2="32" gradientUnits="userSpaceOnUse" xlink:href="#linearGradient4942"/></defs><metadata id="metadata4"/><g id="ic_library_crates" display="inline"><g id="ic_library_playlist" display="inline" transform="translate(2)"><path id="rect10668" fill="url(#linearGradient5319)" fill-opacity="1" fill-rule="nonzero" stroke="none" stroke-width="2" d="M 1,4 C 0.446,4 0,4.446 0,5 v 18 c 0,0.554 0.446,1 1,1 h 24 c 0.554,0 1,-0.446 1,-1 V 5 C 26,4.446 25.554,4 25,4 Z M 8.9375,8.03125 C 9.2716216,8.0083571 9.6883986,8.0774079 10.09375,8.25 l 4.625,2.40625 4.6875,2.375 c 0.771083,0.373736 0.885067,1.433886 0.21875,1.9375 -0.07084,0.04305 -0.13991,0.09421 -0.21875,0.125 l -4.75,2.3125 L 10,19.6875 C 9,20.243635 8,20 8,19 L 7.96875,14 8,9 C 8,8.375 8.3806306,8.0694048 8.9375,8.03125 Z" color="#000" display="inline" enable-background="accumulate" overflow="visible" visibility="visible" style="marker:none"/><path id="path10670" fill="none" stroke="url(#linearGradient5316)" stroke-dasharray="none" stroke-linecap="round" stroke-linejoin="round" stroke-miterlimit="4" stroke-opacity="1" stroke-width="1.999" d="M 2.999743,27.000257 H 29.000256 V 6.9997433"/></g></g></svg>