<svg xmlns="http://www.w3.org/2000/svg" xmlns:osb="http://www.openswatchbook.org/uri/2009/osb" xmlns:svg="http://www.w3.org/2000/svg" xmlns:xlink="http://www.w3.org/1999/xlink" id="svg2" width="24" height="24" display="inline" version="1.1"><title id="title5647">Mixxx 1.12+ iconset</title><defs id="defs28"><linearGradient id="linearGradient5515" osb:paint="solid"><stop id="stop5517" offset="0" stop-color="#000" stop-opacity="1"/></linearGradient><linearGradient id="linearGradient4942"><stop id="stop4944" offset="0" stop-color="#f60" stop-opacity="1"/><stop id="stop4946" offset="1" stop-color="#de5800" stop-opacity="1"/></linearGradient><linearGradient id="linearGradient5695-6"><stop id="stop5697-6" offset="0" stop-color="#3c3c3c" stop-opacity="1"/><stop id="stop5699-7" offset="1" stop-color="#000" stop-opacity="1"/></linearGradient><linearGradient id="linearGradient5695-4"><stop id="stop5697-7" offset="0" stop-color="#646464" stop-opacity="1"/><stop id="stop5699-6" offset="1" stop-color="#000" stop-opacity="1"/></linearGradient><linearGradient id="linearGradient4942-73"><stop id="stop4944-6" offset="0" stop-color="#f60" stop-opacity="1"/><stop id="stop4946-6" offset="1" stop-color="#de5800" stop-opacity="1"/></linearGradient><linearGradient id="linearGradient4942-5"><stop id="stop4944-9" offset="0" stop-color="#f60" stop-opacity="1"/><stop id="stop4946-5" offset="1" stop-color="#de5800" stop-opacity="1"/></linearGradient><linearGradient id="linearGradient4994" x1="16" x2="16" y1="8" y2="32" gradientUnits="userSpaceOnUse" xlink:href="#linearGradient4942"/></defs><metadata id="metadata4"/><rect id="rect3310" width="24" height="24" x="0" y="0" fill="none" stroke="none" stroke-width="1" color="#000" display="inline" enable-background="accumulate" overflow="visible" visibility="visible" style="marker:none"/><g id="g4092" transform="matrix(-1,0,0,1,24,0)"><path id="path5515" fill="#fff" fill-opacity="1" stroke="none" d="M 2,0 V 23.919643 C 2,23.967129 2.03196,24 2.07813,24 H 21.92188 C 21.968042,24 22,23.967129 22,23.919643 V 5.5 L 15.5,0 Z" display="inline"/><path id="rect4856-6" fill="#000" fill-opacity="1" stroke="none" stroke-width=".768" d="M 3,0.99999998 V 22.926339 C 3,22.969868 3.0287625,23 3.0703125,23 H 20.929687 C 20.971237,23 21,22.969868 21,22.926339 V 7 H 14 V 0.99999998 Z" display="inline"/><path id="path7782-7" fill="#000" fill-opacity="1" stroke="none" stroke-width=".768" d="M 15,0.99999998 V 6 h 6 z" display="inline"/></g><g id="flowRoot4078-3" fill="#fff" fill-opacity="1" stroke="none" stroke-linecap="butt" stroke-linejoin="miter" stroke-opacity="1" stroke-width="1" aria-label="♪" display="inline" font-family="Ubuntu" font-size="36" font-stretch="normal" font-style="normal" font-variant="normal" font-weight="300" letter-spacing="0" transform="matrix(0.75095272,0,0,0.75095272,45.590631,-17.260655)" word-spacing="0" style="line-height:125%;-inkscape-font-specification:'Ubuntu Light'"><path id="path4086-6" stroke-width=".706" d="M 12 3 L 12 15.75 A 3.5 2.5 0 0 0 9.5 15 A 3.5 2.5 0 0 0 6 17.5 A 3.5 2.5 0 0 0 9.5 20 A 3.5 2.5 0 0 0 13 17.5 L 13 6.4628906 C 13.233814 6.6693519 13.66558 6.9224396 14.357422 7.2382812 C 16.243483 7.8256082 17.1875 8.4092276 17.1875 8.9882812 C 17.1875 9.6831469 16.934291 10.233335 16.429688 10.638672 L 16.802734 11.035156 L 16.851562 11.035156 C 17.860772 10.241024 18.365234 9.2409447 18.365234 8.0332031 C 18.365234 6.8916393 17.373999 6.0321779 15.388672 5.453125 C 14.076433 4.9752576 13.296773 4.5285517 13 4.1132812 L 13 3 L 12 3 z" transform="matrix(1.3316418,0,0,1.3316418,-60.710388,22.985009)"/></g></svg>